<!-- filepath: public/favicon.svg -->
<svg width="32" height="32" viewBox="0 0 32 32" xmlns="http://www.w3.org/2000/svg">
  <defs>
    <linearGradient id="bgGradient" x1="0%" y1="0%" x2="100%" y2="100%">
      <stop offset="0%" style="stop-color:#0F1419;stop-opacity:1" />
      <stop offset="50%" style="stop-color:#2C5AA0;stop-opacity:1" />
      <stop offset="100%" style="stop-color:#4A90C2;stop-opacity:1" />
    </linearGradient>
    <linearGradient id="textGradient" x1="0%" y1="0%" x2="100%" y2="100%">
      <stop offset="0%" style="stop-color:#6BBFDF;stop-opacity:1" />
      <stop offset="50%" style="stop-color:#E8F4FD;stop-opacity:1" />
      <stop offset="100%" style="stop-color:#6BBFDF;stop-opacity:1" />
    </linearGradient>
    <filter id="glow">
      <feGaussianBlur stdDeviation="1" result="coloredBlur"/>
      <feMerge> 
        <feMergeNode in="coloredBlur"/>
        <feMergeNode in="SourceGraphic"/>
      </feMerge>
    </filter>
  </defs>
  
  <!-- Background -->
  <rect width="32" height="32" rx="6" fill="url(#bgGradient)" stroke="#6BBFDF" stroke-width="1"/>
  
  <!-- H Letter -->
  <path d="M6 8 L6 24 M6 16 L12 16 M12 8 L12 24" 
        stroke="url(#textGradient)" 
        stroke-width="2.5" 
        stroke-linecap="round" 
        stroke-linejoin="round"
        fill="none"
        filter="url(#glow)"/>
  
  <!-- Hydra symbol (wavy lines) -->
  <path d="M16 10 Q18 8 20 10 Q22 12 24 10 Q26 8 28 10" 
        stroke="url(#textGradient)" 
        stroke-width="1.5" 
        stroke-linecap="round"
        fill="none"
        opacity="0.8"/>
  <path d="M16 16 Q18 14 20 16 Q22 18 24 16 Q26 14 28 16" 
        stroke="url(#textGradient)" 
        stroke-width="1.5" 
        stroke-linecap="round"
        fill="none"
        opacity="0.6"/>
  <path d="M16 22 Q18 20 20 22 Q22 24 24 22 Q26 20 28 22" 
        stroke="url(#textGradient)" 
        stroke-width="1.5" 
        stroke-linecap="round"
        fill="none"
        opacity="0.4"/>
  
  <!-- Small accent dots -->
  <circle cx="20" cy="6" r="1" fill="#6BBFDF" opacity="0.8"/>
  <circle cx="26" cy="26" r="1" fill="#6BBFDF" opacity="0.6"/>
</svg>